<?xml version='1.0' encoding='utf-8'?>
<svg xmlns="http://www.w3.org/2000/svg" width="1920" height="1080" version="1.1" viewBox="0 0 508 285.75"> <g transform="translate(0 -11.25)"> <g transform="translate(3345.2 -14569)" shape-rendering="auto"> <g transform="translate(-3226.1 13061)"> <rect x="-119.06" y="1519.4" width="508" height="285.75" color="#000000" color-rendering="auto" fill="#1a1c2b" image-rendering="auto" solid-color="#000000" stroke="#0a0b15" stroke-linecap="round" stroke-linejoin="round" stroke-width=".079375" style="isolation:auto;mix-blend-mode:normal"/> <rect x="-119.06" y="1519.4" width="508" height="285.75" color="#000000" color-rendering="auto" fill="#1a1c2b" image-rendering="auto" solid-color="#000000" style="isolation:auto;mix-blend-mode:normal"/> <path d="m-119.06 1519.4v285.75l508-285.75z" color="#000000" color-rendering="auto" fill="#0a0b15" image-rendering="auto" opacity=".684" solid-color="#000000" style="isolation:auto;mix-blend-mode:normal"/> <path d="m-119.06 1519.4v285.75l508-285.75z" color="#000000" color-rendering="auto" fill="#0a0b15" image-rendering="auto" opacity=".684" solid-color="#000000" style="isolation:auto;mix-blend-mode:normal"/> </g> <g transform="translate(-2653.9 916.67)" fill="#59f"> <path transform="scale(.26458)" d="m-1657.7 51896c-8.0607 0.05-16.158 0.442-24.273 1.188-103.88 9.543-194.34 75.457-235.27 171.41a47.345 47.345 0 1 0 87.086 37.148c27.343-64.1 87.453-107.89 156.85-114.27 46.14-4.239 91.254 8.537 127.65 34.633l-47.42 31.506 208.67 103.45-1.3633-21.797-13.139-210.66-64.375 42.773c-52.508-48.459-121.97-75.814-194.42-75.379z" color="#000000" color-rendering="auto" dominant-baseline="auto" image-rendering="auto" solid-color="#000000" style="font-feature-settings:normal;font-variant-alternates:normal;font-variant-caps:normal;font-variant-ligatures:normal;font-variant-numeric:normal;font-variant-position:normal;isolation:auto;mix-blend-mode:normal;shape-padding:0;text-decoration-color:#000000;text-decoration-line:none;text-decoration-style:solid;text-indent:0;text-orientation:mixed;text-transform:none;white-space:normal"/> <g transform="matrix(1.578 0 0 1.578 -2622 -446.46)"> <path d="m1345 9058.6a7.9383 7.9383 0 0 0 0.2966 0.4669c9.6795 14.568 26.608 22.67 44.025 21.07 17.418-1.6002 32.586-12.65 39.449-28.739a7.9383 7.9383 0 1 0-14.602-6.2289c-4.5847 10.748-14.663 18.091-26.299 19.16s-22.884-4.3143-29.35-14.047a7.9383 7.9383 0 0 0-13.52 8.3175z" color="#000000" color-rendering="auto" dominant-baseline="auto" image-rendering="auto" solid-color="#000000" style="font-feature-settings:normal;font-variant-alternates:normal;font-variant-caps:normal;font-variant-ligatures:normal;font-variant-numeric:normal;font-variant-position:normal;isolation:auto;mix-blend-mode:normal;shape-padding:0;text-decoration-color:#000000;text-decoration-line:none;text-decoration-style:solid;text-indent:0;text-orientation:mixed;text-transform:none;white-space:normal"/> <path transform="matrix(.16767 0 0 .16767 1661.6 282.93)" d="m-1921.3 52204 1.3633 21.795 13.139 210.65 194.17-129z" color="#000000" color-rendering="auto" dominant-baseline="auto" fill-rule="evenodd" image-rendering="auto" solid-color="#000000" style="font-feature-settings:normal;font-variant-alternates:normal;font-variant-caps:normal;font-variant-ligatures:normal;font-variant-numeric:normal;font-variant-position:normal;isolation:auto;mix-blend-mode:normal;shape-padding:0;text-decoration-color:#000000;text-decoration-line:none;text-decoration-style:solid;text-indent:0;text-orientation:mixed;text-transform:none;white-space:normal"/> </g> </g> </g> </g> </svg>