<?xml version='1.0' encoding='utf-8'?>
<svg xmlns="http://www.w3.org/2000/svg" width="1920" height="1080" version="1.1" viewBox="0 0 508 285.75"> <g transform="translate(-2690.4 -13692)"> <g transform="translate(2809.5 12173)" clip-rule="nonzero" fill-rule="nonzero" shape-rendering="auto"> <rect x="-119.06" y="1519.4" width="508" height="285.75" color="#000000" color-rendering="auto" enable-background="accumulate" fill="#1a1c2b" image-rendering="auto" solid-color="#000000" stroke="#0a0b15" stroke-linecap="round" stroke-linejoin="round" stroke-miterlimit="4" stroke-width=".079375" style="isolation:auto;mix-blend-mode:normal"/> <rect x="-119.06" y="1519.4" width="508" height="285.75" color="#000000" color-rendering="auto" enable-background="accumulate" fill="#1a1c2b" image-rendering="auto" solid-color="#000000" style="isolation:auto;mix-blend-mode:normal"/> <path d="m-119.06 1519.4v285.75l508-285.75z" color="#000000" color-rendering="auto" enable-background="accumulate" fill="#0a0b15" image-rendering="auto" opacity=".684" solid-color="#000000" style="isolation:auto;mix-blend-mode:normal"/> <path d="m-119.06 1519.4v285.75l508-285.75z" color="#000000" color-rendering="auto" enable-background="accumulate" fill="#0a0b15" image-rendering="auto" opacity=".684" solid-color="#000000" style="isolation:auto;mix-blend-mode:normal"/> </g> <path d="m2887.2 13809q0 10.411 1.7209 15.03 1.7209 4.62 5.1622 4.62 3.4418 0 5.0717-4.527 1.7209-4.527 1.7209-15.123 0-10.415-1.7209-15.035-1.6299-4.62-5.0717-4.62-3.5323 0-5.2526 4.707-1.6305 4.712-1.6305 14.948zm41.027-0.347q0 19.927-8.9657 30.882-8.9662 10.868-25.54 10.868-15.578 0-24.725-11.227-9.0567-11.32-9.0567-30.523 0-19.922 8.8753-30.611 8.8758-10.781 24.906-10.781 15.849 0 25.178 11.141 9.3279 11.14 9.3279 30.251zm66.024-39.485-73.45 132.4h-26.898l73.449-132.4zm-6.34 92.555q0 10.416 1.7209 15.036t5.1622 4.62q3.8945 0 5.3436-5.252 1.5395-5.344 1.5395-14.404 0-9.053-1.5395-14.305-1.4491-5.344-5.3436-5.344-3.5323 0-5.2526 4.707-1.6305 4.712-1.6305 14.942zm41.027-0.347q0 19.834-9.0566 30.789-8.9657 10.868-25.449 10.868-15.578 0-24.725-11.227-9.0567-11.32-9.0567-30.43 0-19.928 8.8753-30.611 8.8758-10.781 24.906-10.781 15.849 0 25.178 11.141 9.3279 11.14 9.3279 30.251z" fill="#59f"/> </g> </svg>