<?xml version='1.0' encoding='utf-8'?>
<svg xmlns="http://www.w3.org/2000/svg" width="1920" height="1080" version="1.1" viewBox="0 0 508 285.75"> <g transform="translate(0 -11.25)"> <g transform="translate(4105.5 -11972)" shape-rendering="auto"> <g transform="translate(-3986.4 10464)"> <rect x="-119.06" y="1519.4" width="508" height="285.75" color="#000000" color-rendering="auto" fill="#1a1c2b" image-rendering="auto" solid-color="#000000" stroke="#0a0b15" stroke-linecap="round" stroke-linejoin="round" stroke-width=".079375" style="isolation:auto;mix-blend-mode:normal"/> <rect x="-119.06" y="1519.4" width="508" height="285.75" color="#000000" color-rendering="auto" fill="#1a1c2b" image-rendering="auto" solid-color="#000000" style="isolation:auto;mix-blend-mode:normal"/> <path d="m-119.06 1519.4v285.75l508-285.75z" color="#000000" color-rendering="auto" fill="#0a0b15" image-rendering="auto" opacity=".684" solid-color="#000000" style="isolation:auto;mix-blend-mode:normal"/> <path d="m-119.06 1519.4v285.75l508-285.75z" color="#000000" color-rendering="auto" fill="#0a0b15" image-rendering="auto" opacity=".684" solid-color="#000000" style="isolation:auto;mix-blend-mode:normal"/> </g> <path d="m-3935.7 12072a47.25 47.25 0 0 0 15.657 51.933 47.25 47.25 0 0 0 46.408 6.792l76.337 76.338a18.902 18.902 0 1 0 26.73-26.729l-76.339-76.341a47.25 47.25 0 0 0-10.53-50.621l-8.8451-6.95a47.25 47.25 0 0 0-39.324-4.467l24.513 24.513a19.896 21.265 45 1 1-30.07 30.069z" color="#000000" color-rendering="auto" fill="#59f" image-rendering="auto" solid-color="#000000" style="isolation:auto;mix-blend-mode:normal"/> </g> </g> </svg>