<?xml version='1.0' encoding='utf-8'?>
<svg xmlns="http://www.w3.org/2000/svg" width="1920" height="1080" version="1.1" viewBox="0 0 508 285.75"> <g transform="translate(0 -11.25)"> <g transform="translate(4232.1 -8114.1)"> <g transform="translate(-4113 6606)" clip-rule="nonzero" fill-rule="nonzero" shape-rendering="auto"> <rect x="-119.06" y="1519.4" width="508" height="285.75" color="#000000" color-rendering="auto" enable-background="accumulate" fill="#1a1c2b" image-rendering="auto" solid-color="#000000" stroke="#0a0b15" stroke-linecap="round" stroke-linejoin="round" stroke-miterlimit="4" stroke-width=".079375" style="isolation:auto;mix-blend-mode:normal"/> <rect x="-119.06" y="1519.4" width="508" height="285.75" color="#000000" color-rendering="auto" enable-background="accumulate" fill="#1a1c2b" image-rendering="auto" solid-color="#000000" style="isolation:auto;mix-blend-mode:normal"/> <path d="m-119.06 1519.4v285.75l508-285.75z" color="#000000" color-rendering="auto" enable-background="accumulate" fill="#0a0b15" image-rendering="auto" opacity=".684" solid-color="#000000" style="isolation:auto;mix-blend-mode:normal"/> <path d="m-119.06 1519.4v285.75l508-285.75z" color="#000000" color-rendering="auto" enable-background="accumulate" fill="#0a0b15" image-rendering="auto" opacity=".684" solid-color="#000000" style="isolation:auto;mix-blend-mode:normal"/> </g> <path transform="scale(.26458)" d="m-15081 30993c-3.513-0.03-7.028 0.02-10.539 0.158-56.171 2.18-111.51 25.681-152.49 69.965-81.952 88.572-76.546 228 12.026 309.95 88.571 81.953 228 76.54 309.96-12.031 81.954-88.573 76.539-228-12.034-309.95-41.518-38.415-94.214-57.636-146.92-58.091zm-0.765 78.048c33.71 0.313 67.436 12.786 94.349 37.688 57.417 53.126 60.848 141.55 7.721 198.96-53.126 57.415-141.55 60.846-198.96 7.72-57.415-53.125-60.845-141.54-7.72-198.96 26.562-28.708 61.953-43.922 97.877-45.316 2.245-0.09 4.491-0.12 6.738-0.1z" clip-rule="nonzero" color="#000000" color-rendering="auto" dominant-baseline="auto" enable-background="accumulate" fill="#59f" fill-rule="nonzero" image-rendering="auto" shape-rendering="auto" solid-color="#000000" style="font-feature-settings:normal;font-variant-alternates:normal;font-variant-caps:normal;font-variant-ligatures:normal;font-variant-numeric:normal;font-variant-position:normal;isolation:auto;mix-blend-mode:normal;shape-padding:0;text-decoration-color:#000000;text-decoration-line:none;text-decoration-style:solid;text-indent:0;text-orientation:mixed;text-transform:none;white-space:normal"/> <path d="m-3955.9 8290.5 38.081 35.235" fill="none" stroke="#59f" stroke-linecap="round" stroke-linejoin="miter" stroke-miterlimit="4" stroke-width="20.781"/> </g> </g> </svg>