<?xml version='1.0' encoding='utf-8'?>
<svg xmlns="http://www.w3.org/2000/svg" width="1920" height="1080" version="1.1" viewBox="0 0 508 285.75"> <g transform="translate(0 -11.25)"> <g transform="translate(4233.9 -10491)" clip-rule="nonzero" fill-rule="nonzero" shape-rendering="auto"> <g transform="translate(-4114.8 8982.8)"> <rect x="-119.06" y="1519.4" width="508" height="285.75" color="#000000" color-rendering="auto" enable-background="accumulate" fill="#1a1c2b" image-rendering="auto" solid-color="#000000" stroke="#0a0b15" stroke-linecap="round" stroke-linejoin="round" stroke-miterlimit="4" stroke-width=".079375" style="isolation:auto;mix-blend-mode:normal"/> <rect x="-119.06" y="1519.4" width="508" height="285.75" color="#000000" color-rendering="auto" enable-background="accumulate" fill="#1a1c2b" image-rendering="auto" solid-color="#000000" style="isolation:auto;mix-blend-mode:normal"/> <path d="m-119.06 1519.4v285.75l508-285.75z" color="#000000" color-rendering="auto" enable-background="accumulate" fill="#0a0b15" image-rendering="auto" opacity=".684" solid-color="#000000" style="isolation:auto;mix-blend-mode:normal"/> <path d="m-119.06 1519.4v285.75l508-285.75z" color="#000000" color-rendering="auto" enable-background="accumulate" fill="#0a0b15" image-rendering="auto" opacity=".684" solid-color="#000000" style="isolation:auto;mix-blend-mode:normal"/> </g> <g fill="#59f"> <path transform="scale(.26458)" d="m-15313 39926v54.129a232.36 232.36 0 0 0-59.705 24.746l-38.287-38.287-82.156 82.16 38.289 38.285a232.36 232.36 0 0 0-24.787 59.705h-54.094v116.19h54.06a232.36 232.36 0 0 0 24.625 59.9l-38.093 38.092 82.156 82.166 38.14-38.142a232.36 232.36 0 0 0 59.852 24.744v53.982h116.19v-54.027a232.36 232.36 0 0 0 59.711-24.84l38.28 38.279 82.162-82.162-38.268-38.266a232.36 232.36 0 0 0 24.703-59.726h54.151v-116.19h-53.887a232.36 232.36 0 0 0-24.902-59.787l38.203-38.203-82.162-82.16-38.162 38.162a232.36 232.36 0 0 0-59.829-24.642v-54.108zm60.561 161.47a117.38 117.38 0 0 1 111.59 89.609l3.327 27.748a117.38 117.38 0 0 1-110.38 117.18 117.38 117.38 0 0 1-123.55-103.2 117.38 117.38 0 0 1 95.65-129.48 117.38 117.38 0 0 1 23.366-1.849z" color="#000000" color-rendering="auto" enable-background="accumulate" image-rendering="auto" solid-color="#000000" style="isolation:auto;mix-blend-mode:normal"/> <path transform="scale(.26458)" d="m-14656 40110v16.928a72.677 72.677 0 0 0-18.674 7.74l-11.975-11.977-25.697 25.702 11.977 11.972a72.677 72.677 0 0 0-7.752 18.676h-16.92v36.34h16.908a72.677 72.677 0 0 0 7.703 18.734l-11.916 11.914 25.697 25.7 11.93-11.932a72.677 72.677 0 0 0 18.719 7.74v16.885h36.342v-16.899a72.677 72.677 0 0 0 18.675-7.767l11.975 11.973 25.697-25.7-11.968-11.966a72.677 72.677 0 0 0 7.726-18.682h16.938v-36.34h-16.856a72.677 72.677 0 0 0-7.789-18.701l11.949-11.947-25.697-25.702-11.937 11.94a72.677 72.677 0 0 0-18.713-7.711v-16.92zm18.943 50.504a36.715 36.715 0 0 1 34.903 28.027l1.039 8.68a36.715 36.715 0 0 1-34.524 36.648 36.715 36.715 0 0 1-38.644-32.277 36.715 36.715 0 0 1 29.918-40.5 36.715 36.715 0 0 1 7.308-0.578z" color="#000000" color-rendering="auto" enable-background="accumulate" image-rendering="auto" solid-color="#000000" style="isolation:auto;mix-blend-mode:normal"/> <path transform="scale(.26458)" d="m-14860 40225-60.731 23.91 11.145 28.301a130.52 130.52 0 0 0-26.146 25.199l-27.864-12.121-26.035 59.848 27.846 12.113a130.52 130.52 0 0 0-0.738 36.371l-28.159 11.086 23.907 60.733 28.193-11.1a130.52 130.52 0 0 0 25.285 26.154l-12.098 27.809 59.848 26.033 12.107-27.828a130.52 130.52 0 0 0 36.323 0.586l11.14 28.297 60.733-23.912-11.137-28.283a130.52 130.52 0 0 0 26.108-25.233l27.892 12.137 26.037-59.85-27.758-12.074a130.52 130.52 0 0 0 0.571-36.375l28.238-11.119-23.91-60.729-28.209 11.104a130.52 130.52 0 0 0-25.295-26.098l12.125-27.875-59.85-26.033-12.129 27.883a130.52 130.52 0 0 0-36.298-0.635zm28.344 91.77a65.937 65.937 0 0 1 13.785 1.744 65.937 65.937 0 0 1 49.849 75.445l-4.503 15.039a65.937 65.937 0 0 1-83.116 35.619 65.937 65.937 0 0 1-40.513-80.841 65.937 65.937 0 0 1 64.498-47.006z" color="#000000" color-rendering="auto" enable-background="accumulate" image-rendering="auto" solid-color="#000000" style="isolation:auto;mix-blend-mode:normal"/> </g> </g> </g> </svg>