<?xml version='1.0' encoding='utf-8'?>
<svg xmlns="http://www.w3.org/2000/svg" width="1920" height="1080" version="1.1" viewBox="0 0 508 285.75"> <g transform="translate(0 -11.25)"> <g transform="translate(2804.6 -9361)" clip-rule="nonzero" fill-rule="nonzero" shape-rendering="auto"> <g transform="translate(-2685.5 7852.9)"> <rect x="-119.06" y="1519.4" width="508" height="285.75" color="#000000" color-rendering="auto" enable-background="accumulate" fill="#1a1c2b" image-rendering="auto" solid-color="#000000" stroke="#0a0b15" stroke-linecap="round" stroke-linejoin="round" stroke-miterlimit="4" stroke-width=".079375" style="isolation:auto;mix-blend-mode:normal"/> <rect x="-119.06" y="1519.4" width="508" height="285.75" color="#000000" color-rendering="auto" enable-background="accumulate" fill="#1a1c2b" image-rendering="auto" solid-color="#000000" style="isolation:auto;mix-blend-mode:normal"/> <path d="m-119.06 1519.4v285.75l508-285.75z" color="#000000" color-rendering="auto" enable-background="accumulate" fill="#0a0b15" image-rendering="auto" opacity=".684" solid-color="#000000" style="isolation:auto;mix-blend-mode:normal"/> <path d="m-119.06 1519.4v285.75l508-285.75z" color="#000000" color-rendering="auto" enable-background="accumulate" fill="#0a0b15" image-rendering="auto" opacity=".684" solid-color="#000000" style="isolation:auto;mix-blend-mode:normal"/> </g> <path d="m-2531.4 9428.1a23.017 23.017 0 0 0-4.5817 0.3622 23.017 23.017 0 0 0-18.755 25.389 23.017 23.017 0 0 0 3.8696 10.232h-50.718v51.017a23.017 23.017 0 0 0-17.256-3.7788 23.017 23.017 0 0 0-18.755 25.389 23.017 23.017 0 0 0 24.226 20.236 23.017 23.017 0 0 0 11.785-4.1241v49.36h50.718a23.017 23.017 0 0 1-3.8696-10.232 23.017 23.017 0 0 1 18.755-25.389 23.017 23.017 0 0 1 26.462 17.208l0.6519 5.4411a23.017 23.017 0 0 1-4.0054 12.972h49.386v-49.36a23.017 23.017 0 0 1-11.785 4.1241 23.017 23.017 0 0 1-24.226-20.236 23.017 23.017 0 0 1 18.755-25.389 23.017 23.017 0 0 1 17.256 3.7788v-51.017h-49.386a23.017 23.017 0 0 0 4.0054-12.972l-0.6519-5.4411a23.017 23.017 0 0 0-21.881-17.57z" color="#000000" color-rendering="auto" enable-background="accumulate" fill="#59f" image-rendering="auto" solid-color="#000000" style="isolation:auto;mix-blend-mode:normal"/> </g> </g> </svg>