<?xml version='1.0' encoding='utf-8'?>
<svg xmlns="http://www.w3.org/2000/svg" width="1920" height="1080" version="1.1" viewBox="0 0 508 285.75"> <g transform="translate(0 -11.25)"> <g transform="translate(183.35 -4067.1)"> <g transform="translate(-64.246 2558.9)" clip-rule="nonzero" fill-rule="nonzero" shape-rendering="auto"> <rect x="-119.06" y="1519.4" width="508" height="285.75" color="#000000" color-rendering="auto" enable-background="accumulate" fill="#1a1c2b" image-rendering="auto" solid-color="#000000" stroke="#0a0b15" stroke-linecap="round" stroke-linejoin="round" stroke-miterlimit="4" stroke-width=".079375" style="isolation:auto;mix-blend-mode:normal"/> <rect x="-119.06" y="1519.4" width="508" height="285.75" color="#000000" color-rendering="auto" enable-background="accumulate" fill="#1a1c2b" image-rendering="auto" solid-color="#000000" style="isolation:auto;mix-blend-mode:normal"/> <path d="m-119.06 1519.4v285.75l508-285.75z" color="#000000" color-rendering="auto" enable-background="accumulate" fill="#0a0b15" image-rendering="auto" opacity=".684" solid-color="#000000" style="isolation:auto;mix-blend-mode:normal"/> <path d="m-119.06 1519.4v285.75l508-285.75z" color="#000000" color-rendering="auto" enable-background="accumulate" fill="#0a0b15" image-rendering="auto" opacity=".684" solid-color="#000000" style="isolation:auto;mix-blend-mode:normal"/> <path d="m-119.06 1519.4v285.75l508-285.75z" color="#000000" color-rendering="auto" enable-background="accumulate" fill="#0a0b15" image-rendering="auto" opacity=".684" solid-color="#000000" style="isolation:auto;mix-blend-mode:normal"/> </g> <g transform="translate(-765.39 -741.43)"> <path d="m756.71 4896.4v105.83h158.75v-105.83z" fill="none" stroke="#59f" stroke-linecap="round" stroke-linejoin="round" stroke-miterlimit="4" stroke-width="10.583"/> <path d="m836.08 5002.3v26.458" fill="#59f" fill-rule="evenodd" stroke="#59f" stroke-linecap="butt" stroke-linejoin="miter" stroke-miterlimit="4" stroke-width="10.583"/> <path d="m809.62 5028.7h52.917" fill="#59f" fill-rule="evenodd" stroke="#59f" stroke-linecap="square" stroke-linejoin="miter" stroke-miterlimit="4" stroke-width="10.583"/> <g transform="matrix(.44216 0 0 .44216 767.32 4840.5)" fill="#393366" fill-rule="evenodd" stroke="#59f" stroke-linecap="round" stroke-miterlimit="4"> <g transform="matrix(1.3114 0 0 1.3114 -64.448 -158.94)" stroke-linejoin="round" stroke-width="10.088"> <path d="m105.66 309 28.908-23.257"/> <path d="m105.66 309 28.908 23.257"/> </g> <g transform="matrix(-1.3114 0 0 1.3114 375.48 -158.94)" stroke-linejoin="round" stroke-width="10.088"> <path d="m105.66 309 28.908-23.257"/> <path d="m105.66 309 28.908 23.257"/> </g> <path d="m142.94 299.12 25.156-105.67" stroke-linejoin="miter" stroke-width="13.986"/> </g> <path d="m756.71 4891.2a5.2922 5.2922 0 0 0-5.293 5.291v105.83a5.2922 5.2922 0 0 0 5.293 5.291h158.75a5.2922 5.2922 0 0 0 5.291-5.291v-105.83a5.2922 5.2922 0 0 0-5.291-5.291z" clip-rule="nonzero" color="#000000" color-rendering="auto" dominant-baseline="auto" enable-background="accumulate" fill="#59f" fill-rule="evenodd" image-rendering="auto" shape-rendering="auto" solid-color="#000000" style="font-feature-settings:normal;font-variant-alternates:normal;font-variant-caps:normal;font-variant-ligatures:normal;font-variant-numeric:normal;font-variant-position:normal;isolation:auto;mix-blend-mode:normal;shape-padding:0;text-decoration-color:#000000;text-decoration-line:none;text-decoration-style:solid;text-indent:0;text-orientation:mixed;text-transform:none;white-space:normal"/> <path d="m762 4901.7h148.17v95.25h-148.17z" clip-rule="nonzero" color="#000000" color-rendering="auto" dominant-baseline="auto" enable-background="accumulate" fill="#fff" fill-rule="evenodd" image-rendering="auto" shape-rendering="auto" solid-color="#000000" style="font-feature-settings:normal;font-variant-alternates:normal;font-variant-caps:normal;font-variant-ligatures:normal;font-variant-numeric:normal;font-variant-position:normal;isolation:auto;mix-blend-mode:normal;shape-padding:0;text-decoration-color:#000000;text-decoration-line:none;text-decoration-style:solid;text-indent:0;text-orientation:mixed;text-transform:none;white-space:normal"/> <path d="m830.79 5002.3v26.459h10.584v-26.459z" clip-rule="nonzero" color="#000000" color-rendering="auto" dominant-baseline="auto" enable-background="accumulate" fill="#59f" fill-rule="evenodd" image-rendering="auto" shape-rendering="auto" solid-color="#000000" style="font-feature-settings:normal;font-variant-alternates:normal;font-variant-caps:normal;font-variant-ligatures:normal;font-variant-numeric:normal;font-variant-position:normal;isolation:auto;mix-blend-mode:normal;shape-padding:0;text-decoration-color:#000000;text-decoration-line:none;text-decoration-style:solid;text-indent:0;text-orientation:mixed;text-transform:none;white-space:normal"/> <path d="m804.33 5023.4v10.584h63.5v-10.584h-58.209z" clip-rule="nonzero" color="#000000" color-rendering="auto" dominant-baseline="auto" enable-background="accumulate" fill="#59f" fill-rule="evenodd" image-rendering="auto" shape-rendering="auto" solid-color="#000000" style="font-feature-settings:normal;font-variant-alternates:normal;font-variant-caps:normal;font-variant-ligatures:normal;font-variant-numeric:normal;font-variant-position:normal;isolation:auto;mix-blend-mode:normal;shape-padding:0;text-decoration-color:#000000;text-decoration-line:none;text-decoration-style:solid;text-indent:0;text-orientation:mixed;text-transform:none;white-space:normal"/> <g transform="matrix(.57984 0 0 .57984 738.82 4770.2)" fill="#393366" fill-rule="evenodd" stroke="#59f" stroke-linecap="round" stroke-linejoin="round" stroke-miterlimit="4" stroke-width="10.088"> <path d="m105.66 309 28.908-23.257"/> <path d="m105.66 309 28.908 23.257"/> </g> <g transform="matrix(-.57984 0 0 .57984 933.34 4770.2)" fill="#393366" fill-rule="evenodd" stroke="#59f" stroke-linecap="round" stroke-linejoin="round" stroke-miterlimit="4" stroke-width="10.088"> <path d="m105.66 309 28.908-23.257"/> <path d="m105.66 309 28.908 23.257"/> </g> <path d="m841.71 4922.9a3.0924 3.0924 0 0 0-3.0762 2.418l-11.123 46.723a3.0924 3.0924 0 1 0 6.0156 1.4317l11.123-46.723a3.0924 3.0924 0 0 0-2.9394-3.8496z" clip-rule="nonzero" color="#000000" color-rendering="auto" dominant-baseline="auto" enable-background="accumulate" fill="#59f" fill-rule="evenodd" image-rendering="auto" shape-rendering="auto" solid-color="#000000" style="font-feature-settings:normal;font-variant-alternates:normal;font-variant-caps:normal;font-variant-ligatures:normal;font-variant-numeric:normal;font-variant-position:normal;isolation:auto;mix-blend-mode:normal;shape-padding:0;text-decoration-color:#000000;text-decoration-line:none;text-decoration-style:solid;text-indent:0;text-orientation:mixed;text-transform:none;white-space:normal"/> </g> </g> </g> </svg>